<svg xmlns="http://www.w3.org/2000/svg" version="1.1" xmlns:xlink="http://www.w3.org/1999/xlink" xmlns:svgjs="http://svgjs.dev/svgjs" width="1000" height="1000" viewBox="0 0 1000 1000"><g transform="matrix(1,0,0,1,0.4048582995951051,0.40547491235679445)"><svg viewBox="0 0 247 247" data-background-color="#ffffff" preserveAspectRatio="xMidYMid meet" height="1000" width="1000" xmlns="http://www.w3.org/2000/svg" xmlns:xlink="http://www.w3.org/1999/xlink"><defs></defs><g id="tight-bounds" transform="matrix(1,0,0,1,-0.09999999999999432,-0.10015230335213232)"><svg viewBox="0 0 247.2 247.2" height="247.2" width="247.2"><g><svg viewBox="0 0 247.2 247.2" height="247.2" width="247.2"><g><svg viewBox="0 0 247.2 247.2" height="247.2" width="247.2"><g><svg viewBox="0 0 247.2 247.2" height="247.2" width="247.2"><g><svg viewBox="0 0 247.2 247.2" height="247.2" width="247.2"><g><svg viewBox="0 0 247.2 247.2" height="247.2" width="247.2"><g transform="matrix(1,0,0,1,75.49177681419394,65.33440123022848)"><svg viewBox="0 0 96.2164463716121 116.53119753954303" height="116.53119753954303" width="96.2164463716121"><g><svg xmlns="http://www.w3.org/2000/svg" xmlns:xlink="http://www.w3.org/1999/xlink" version="1.1" x="0" y="0" viewBox="18.391971588134766 11.718999862670898 63.215030670166016 76.56199645996094" enable-background="new 0 0 100 100" xml:space="preserve" height="116.53119753954303" width="96.2164463716121" class="icon-o-0" data-fill-palette-color="accent" id="o-0"><g fill="#f98e54" data-fill-palette-color="accent"><g fill="#f98e54" data-fill-palette-color="accent"><path fill-rule="evenodd" clip-rule="evenodd" d="M73.105 37.145h-1.352c-0.337-1.092-0.931-2.007-1.748-2.754-1.762-1.747-4.369-2.669-7.888-2.669-0.59-0.014-1.258 0.064-1.85 0.153-2.43 0.161-7.619 0.509-10.304 0.509-2.592 0-7.791-0.338-10.3-0.509-0.588-0.088-1.181-0.153-1.862-0.153-3.427-0.014-6.112 0.922-7.872 2.669-0.756 0.74-1.342 1.663-1.762 2.754h-1.244c-1.437 0-1.437 1.438-1.437 1.941 0 0.577 0 2.002 1.437 2.002h0.665c0.075 3.941 1.247 8.972 10.213 8.972 3.024 0 5.631-0.922 7.469-2.771 1.755-1.664 2.77-3.85 2.845-6.281 0 0 0.079-2.778 1.849-2.778 1.755 0 1.922 2.778 1.922 2.778 0.075 2.431 1.017 4.617 2.775 6.281 1.929 1.849 4.52 2.771 7.456 2.771 8.972 0 10.215-5.031 10.315-8.972h0.672c1.407 0 1.407-1.425 1.407-2.002C74.513 38.583 74.513 37.145 73.105 37.145L73.105 37.145zM27.589 39.92h-0.665c-0.178 0-0.343 0-0.343-0.834 0-0.855 0.165-0.855 0.343-0.855h0.917C27.754 38.741 27.665 39.331 27.589 39.92L27.589 39.92zM49.964 37.145c-0.925 0-1.678 0.512-2.176 1.187-0.416-1.857-1.352-3.35-2.771-4.437-0.25-0.276-0.593-0.423-0.922-0.692 2.182 0.179 4.446 0.269 5.868 0.269 1.509 0 3.778-0.089 5.956-0.269-0.334 0.269-0.667 0.416-1.014 0.692-1.331 1.087-2.257 2.58-2.769 4.437C51.645 37.656 50.97 37.145 49.964 37.145L49.964 37.145zM73.105 39.92h-0.772c0-0.589-0.074-1.179-0.251-1.689h1.023c0.149 0 0.326 0 0.326 0.855C73.432 39.92 73.255 39.92 73.105 39.92L73.105 39.92z" fill="#f98e54" data-fill-palette-color="accent"></path></g><g fill="#f98e54" data-fill-palette-color="accent"><g fill="#f98e54" data-fill-palette-color="accent"><path fill="none" d="M76.214 15.132H23.787c-0.944 0-1.706 0.769-1.706 1.706v52.434c0 0.664 0.375 1.258 0.993 1.543h53.854c0.612-0.285 0.991-0.879 0.991-1.543V16.837C77.919 15.901 77.151 15.132 76.214 15.132z"></path><path fill="#f98e54" d="M81.34 16.837c0-2.816-2.302-5.118-5.126-5.118H23.791c-2.829 0-5.13 2.302-5.13 5.118l-0.269 66.831c-0.009 2.547 2.102 4.613 4.69 4.613h53.833c2.584 0 4.692-2.066 4.692-4.613L81.34 16.837zM77.919 69.271c0 0.664-0.379 1.258-0.991 1.543H23.074c-0.618-0.285-0.993-0.879-0.993-1.543V16.837c0-0.937 0.762-1.706 1.706-1.706h52.427c0.938 0 1.705 0.769 1.705 1.706V69.271z" data-fill-palette-color="accent"></path></g><g fill="#f98e54" data-fill-palette-color="accent"><path fill="#f98e54" d="M33.629 27.325l0.021 3.711-2.284-2.925c-0.431-0.55-0.333-1.346 0.218-1.775 0.551-0.431 1.348-0.333 1.776 0.218C33.539 26.783 33.625 27.057 33.629 27.325" data-fill-palette-color="accent"></path><path fill="#f98e54" d="M29.956 29.251l2.641 2.609-3.685-0.455c-0.692-0.083-1.186-0.716-1.103-1.408 0.088-0.693 0.718-1.187 1.411-1.1C29.508 28.931 29.762 29.062 29.956 29.251" data-fill-palette-color="accent"></path><path fill="#f98e54" d="M66.371 27.325l-0.021 3.711 2.284-2.925c0.432-0.55 0.334-1.346-0.218-1.775-0.551-0.431-1.347-0.333-1.776 0.218C66.462 26.783 66.374 27.057 66.371 27.325" data-fill-palette-color="accent"></path><path fill="#f98e54" d="M70.044 29.251l-2.641 2.609 3.685-0.455c0.692-0.083 1.187-0.716 1.103-1.408-0.087-0.693-0.717-1.187-1.411-1.1C70.491 28.931 70.237 29.062 70.044 29.251" data-fill-palette-color="accent"></path></g></g><g fill="#f98e54" data-fill-palette-color="accent"><path d="M68.523 55.24c-4.218 4.459-9.438 7.49-14.68 8.627-0.344 0.084-0.688 0.156-1.042 0.209-1.146 0.197-2.292 0.301-3.417 0.313-0.219 0-0.438 0-0.657-0.012-0.145 0-0.281 0-0.427-0.01-1.042-0.051-2.052-0.188-2.99-0.395-0.354-0.084-0.708-0.178-1.042-0.283-2.156-0.666-3.917-1.781-5.063-3.25l-0.824 0.635c1.324 1.709 3.386 2.98 5.887 3.699v1.281c0 1.428 1.167 2.605 2.605 2.605h4.365c1.429 0 2.604-1.178 2.604-2.605v-1.115c5.513-1.145 11.014-4.303 15.441-8.98L68.523 55.24zM48.728 67.619h-1.854c-0.865 0-1.563-0.709-1.563-1.564v-1.021c0.928 0.199 1.917 0.324 2.938 0.377 0.157 0.01 0.322 0.02 0.479 0.01V67.619zM52.802 66.055c0 0.855-0.708 1.564-1.563 1.564h-1.854v-2.178c1.125-0.012 2.271-0.105 3.417-0.303V66.055z" fill="#f98e54" data-fill-palette-color="accent"></path></g><g fill="#f98e54" data-fill-palette-color="accent"><path d="M70.945 56.884c-0.203-1.999-2.004-3.455-3.997-3.257l-0.106-1.035c2.579-0.28 4.878 1.615 5.142 4.187L70.945 56.884z" fill="#f98e54" data-fill-palette-color="accent"></path></g></g></svg></g></svg></g><path d="M28.3 88.574l-3.572 10.12-2.738-0.966 3.449-9.771c0.264-0.749 0.313-1.457 0.145-2.126-0.164-0.659-0.472-1.239-0.926-1.739-0.447-0.498-0.982-0.856-1.605-1.076v0c-0.648-0.229-1.297-0.295-1.947-0.199-0.652 0.103-1.237 0.356-1.755 0.761-0.52 0.411-0.912 0.991-1.177 1.74v0l-1.503 4.258c-0.449 1.271-1.107 2.295-1.976 3.071-0.865 0.785-1.862 1.286-2.993 1.502-1.125 0.219-2.279 0.119-3.462-0.298v0c-1.202-0.424-2.195-1.072-2.978-1.943-0.785-0.865-1.285-1.873-1.501-3.025-0.222-1.154-0.114-2.355 0.326-3.601v0l3.379-9.573 2.738 0.967-3.276 9.28c-0.251 0.711-0.304 1.393-0.159 2.046 0.145 0.653 0.431 1.214 0.86 1.684 0.425 0.461 0.939 0.799 1.543 1.012v0c0.579 0.204 1.181 0.265 1.805 0.18 0.616-0.08 1.181-0.326 1.694-0.739 0.508-0.415 0.882-0.966 1.125-1.653v0l1.536-4.352c0.478-1.353 1.154-2.417 2.029-3.191 0.883-0.778 1.876-1.263 2.977-1.455 1.107-0.19 2.253-0.075 3.436 0.343v0c1.309 0.462 2.38 1.137 3.213 2.026 0.842 0.885 1.381 1.914 1.618 3.087 0.237 1.174 0.135 2.384-0.305 3.63zM46.023 61.354v0c-0.771 0.964-1.683 1.65-2.734 2.057-1.061 0.408-2.152 0.522-3.274 0.343-1.123-0.188-2.2-0.695-3.233-1.521v0l-9.289-7.428c-0.48-0.384-1.009-0.614-1.587-0.693-0.574-0.083-1.135-0.023-1.682 0.181-0.542 0.208-0.998 0.543-1.37 1.007v0c-0.371 0.464-0.594 0.978-0.668 1.542-0.074 0.573-0.005 1.128 0.206 1.665 0.216 0.532 0.564 0.989 1.043 1.372v0l14.176 11.337-2.051 2.564-13.831-11.061c-0.975-0.78-1.685-1.698-2.131-2.754-0.44-1.053-0.581-2.144-0.421-3.273 0.159-1.129 0.637-2.191 1.433-3.187v0c0.809-1.011 1.746-1.719 2.813-2.122 1.066-0.404 2.161-0.506 3.285-0.309 1.129 0.202 2.181 0.693 3.155 1.473v0l9.297 7.434c0.495 0.396 1.027 0.634 1.597 0.713 0.568 0.07 1.119 0.006 1.652-0.191 0.539-0.193 0.988-0.514 1.346-0.962v0c0.354-0.443 0.564-0.946 0.63-1.509 0.071-0.559 0.003-1.1-0.202-1.623-0.206-0.533-0.557-0.997-1.052-1.393v0l-9.297-7.435c-0.975-0.78-1.681-1.703-2.118-2.77-0.436-1.058-0.574-2.151-0.415-3.28 0.159-1.129 0.645-2.202 1.458-3.218v0c0.796-0.996 1.727-1.695 2.794-2.099 1.062-0.398 2.155-0.499 3.279-0.301 1.129 0.202 2.181 0.693 3.155 1.472v0l13.832 11.062-2.051 2.564-14.176-11.336c-0.48-0.384-1.002-0.622-1.568-0.716-0.57-0.088-1.125-0.036-1.664 0.157-0.538 0.202-0.99 0.533-1.356 0.991v0c-0.388 0.485-0.619 1.009-0.694 1.573-0.07 0.568-0.003 1.126 0.2 1.673 0.208 0.542 0.551 1.005 1.031 1.389v0l9.289 7.428c1.032 0.825 1.761 1.768 2.188 2.826 0.421 1.055 0.554 2.139 0.398 3.254-0.161 1.11-0.626 2.145-1.393 3.104zM65.404 42.07l-2.996 1.719-3.716-22.812c-0.147-0.993-0.05-1.837 0.289-2.532 0.334-0.692 0.869-1.249 1.604-1.671v0c0.729-0.419 1.48-0.607 2.251-0.564 0.777 0.039 1.545 0.379 2.305 1.02v0l17.874 14.735-3.118 1.789-4.681-3.975-10.855 6.229zM61.701 20.509l2.11 12.467 9.1-5.222-9.612-8.162c-0.245-0.198-0.465-0.334-0.66-0.406-0.201-0.069-0.409-0.042-0.624 0.08v0c-0.203 0.116-0.322 0.277-0.358 0.483-0.042 0.209-0.027 0.462 0.044 0.76zM94.343 28.338l-3.183 0.806-5.873-23.196 10.181-2.578c1.456-0.369 2.858-0.39 4.208-0.063 1.358 0.331 2.532 0.973 3.524 1.927 0.994 0.96 1.684 2.204 2.07 3.73v0c0.392 1.546 0.346 3.011-0.137 4.394-0.485 1.376-1.317 2.52-2.498 3.431v0l3.76 4.408c0.265 0.312 0.524 0.521 0.779 0.629 0.25 0.116 0.575 0.123 0.976 0.021v0l1.65-0.418 0.712 2.815-2.144 0.543c-0.867 0.22-1.68 0.191-2.439-0.085-0.767-0.281-1.455-0.744-2.065-1.387v0l-4.221-4.963c-0.213 0.082-0.445 0.161-0.694 0.238-0.251 0.07-0.509 0.139-0.774 0.206v0l-5.871 1.487zM89.183 7.957l2.408 9.511 6.561-1.661c0.951-0.241 1.771-0.648 2.458-1.222 0.694-0.575 1.179-1.273 1.453-2.092 0.273-0.826 0.284-1.735 0.033-2.725v0c-0.257-1.016-0.708-1.817-1.352-2.405-0.646-0.594-1.402-0.981-2.267-1.161-0.871-0.179-1.77-0.151-2.695 0.084v0zM133.605 24.379l-1.611-0.049c-1.294-0.039-2.407-0.354-3.337-0.942-0.93-0.583-1.635-1.365-2.112-2.348-0.484-0.99-0.708-2.085-0.671-3.286v0l0.445-14.631-7.275-0.221 0.088-2.902 17.833 0.543-0.089 2.902-7.275-0.222-0.457 15.031c-0.027 0.894 0.227 1.64 0.763 2.237 0.543 0.597 1.281 0.91 2.215 0.939v0l1.571 0.047zM162.99 31.945l-2.997-1.316 7.121-16.216c0.486-1.106 1.167-1.977 2.043-2.612 0.871-0.638 1.841-1.014 2.912-1.128 1.07-0.113 2.149 0.069 3.237 0.547v0l7.792 3.422-1.168 2.658-7.443-3.268c-0.923-0.405-1.785-0.441-2.588-0.109-0.808 0.33-1.404 0.932-1.788 1.806v0l-1.952 4.446 9.332 4.098-1.168 2.659-9.332-4.098zM194.125 51.77l-7.373-5.768c-1.046-0.818-1.773-1.785-2.18-2.9-0.413-1.119-0.53-2.258-0.354-3.416 0.186-1.159 0.652-2.215 1.397-3.166v0c0.674-0.862 1.508-1.511 2.5-1.946 0.997-0.44 2.048-0.576 3.153-0.406v0c-0.373-1.072-0.478-2.119-0.313-3.143 0.169-1.029 0.562-1.937 1.179-2.726v0c0.761-0.973 1.678-1.674 2.753-2.105 1.074-0.431 2.193-0.577 3.355-0.439 1.159 0.144 2.214 0.588 3.165 1.332v0l7.46 5.836-1.788 2.287-7.161-5.601c-0.557-0.436-1.156-0.688-1.797-0.758-0.645-0.064-1.264 0.024-1.858 0.263-0.598 0.244-1.115 0.645-1.55 1.202v0c-0.407 0.52-0.648 1.099-0.722 1.736-0.074 0.637 0.011 1.259 0.256 1.866 0.241 0.612 0.633 1.13 1.174 1.554v0l6.112 4.78-1.789 2.287-5.922-4.632c-0.668-0.522-1.353-0.821-2.057-0.897-0.713-0.075-1.383 0.024-2.011 0.295-0.637 0.273-1.165 0.677-1.585 1.214v0c-0.419 0.536-0.686 1.137-0.799 1.802-0.114 0.665-0.045 1.32 0.204 1.965 0.245 0.641 0.682 1.207 1.314 1.701v0l7.026 5.496zM207.631 68.253l-6.442-8.585 2.323-1.742 6.219 8.288c0.477 0.635 1.039 1.068 1.688 1.299 0.639 0.229 1.293 0.294 1.96 0.194 0.662-0.096 1.257-0.343 1.786-0.739v0c0.55-0.413 0.965-0.916 1.245-1.51 0.276-0.599 0.39-1.227 0.34-1.882-0.054-0.661-0.319-1.309-0.795-1.945v0l-2.71-3.611c-0.809-1.078-1.296-2.194-1.46-3.348-0.174-1.155-0.037-2.263 0.41-3.324 0.442-1.057 1.164-1.963 2.168-2.715v0c1.02-0.765 2.109-1.232 3.267-1.401 1.155-0.174 2.271-0.031 3.35 0.428 1.084 0.455 2.023 1.211 2.816 2.268v0l6.093 8.12-2.323 1.743-5.906-7.872c-0.453-0.603-0.991-1.026-1.614-1.267-0.623-0.241-1.25-0.314-1.879-0.218-0.619 0.098-1.185 0.339-1.697 0.723v0c-0.491 0.369-0.875 0.836-1.152 1.402-0.275 0.557-0.383 1.163-0.324 1.82 0.064 0.653 0.315 1.27 0.752 1.852v0l2.77 3.692c0.861 1.148 1.371 2.3 1.53 3.458 0.158 1.167 0.011 2.261-0.44 3.284-0.456 1.027-1.186 1.916-2.19 2.669v0c-1.11 0.833-2.266 1.35-3.467 1.551-1.203 0.21-2.358 0.088-3.466-0.366-1.108-0.454-2.059-1.209-2.852-2.266zM221.227 95.648l-0.589-1.5c-0.473-1.205-0.622-2.352-0.446-3.439 0.169-1.085 0.612-2.04 1.327-2.866 0.719-0.834 1.638-1.471 2.757-1.91v0l13.625-5.348-2.66-6.775 2.703-1.061 6.519 16.607-2.703 1.061-2.659-6.775-13.998 5.494c-0.833 0.327-1.418 0.854-1.756 1.582-0.336 0.734-0.333 1.536 0.008 2.406v0l0.575 1.463zM11.903 171.175l-3.499-9.956 2.692-0.946 3.38 9.616c0.259 0.737 0.658 1.308 1.196 1.712 0.532 0.407 1.127 0.661 1.786 0.763 0.652 0.103 1.283 0.048 1.893-0.167v0c0.636-0.224 1.175-0.572 1.617-1.046 0.433-0.478 0.723-1.032 0.869-1.664 0.146-0.631 0.088-1.319-0.172-2.062v0l-1.471-4.184c-0.438-1.247-0.563-2.437-0.375-3.572 0.182-1.132 0.638-2.131 1.367-2.995 0.729-0.865 1.676-1.502 2.841-1.911v0c1.184-0.416 2.343-0.53 3.477-0.342 1.132 0.182 2.137 0.646 3.015 1.392 0.88 0.752 1.536 1.742 1.967 2.97v0l3.31 9.417-2.692 0.946-3.21-9.134c-0.246-0.699-0.625-1.255-1.139-1.669-0.513-0.414-1.077-0.669-1.69-0.764-0.618-0.087-1.223-0.027-1.815 0.181v0c-0.567 0.199-1.065 0.523-1.494 0.971-0.423 0.446-0.702 0.982-0.835 1.61-0.14 0.629-0.09 1.284 0.149 1.964v0l1.504 4.278c0.469 1.335 0.61 2.57 0.421 3.705-0.195 1.137-0.66 2.117-1.396 2.942-0.727 0.829-1.674 1.448-2.839 1.857v0c-1.291 0.454-2.528 0.598-3.71 0.434-1.191-0.169-2.237-0.629-3.138-1.38-0.907-0.749-1.577-1.738-2.009-2.966zM31.671 203.954v0c-0.753-0.945-1.211-1.971-1.376-3.077-0.16-1.101-0.03-2.169 0.392-3.204 0.417-1.04 1.132-1.964 2.145-2.771v0l9.156-7.29c0.475-0.378 0.814-0.832 1.016-1.36 0.203-0.537 0.266-1.091 0.188-1.66-0.078-0.569-0.298-1.081-0.659-1.535v0c-0.362-0.454-0.807-0.778-1.336-0.971-0.533-0.198-1.08-0.253-1.642-0.165-0.556 0.084-1.071 0.316-1.546 0.694v0l-13.964 11.12-2.009-2.522 13.62-10.846c0.966-0.769 2.004-1.25 3.113-1.442 1.1-0.193 2.176-0.09 3.228 0.309 1.048 0.394 1.962 1.082 2.744 2.064v0c0.794 0.997 1.268 2.053 1.422 3.168 0.15 1.109 0.009 2.181-0.421 3.215-0.44 1.033-1.143 1.934-2.109 2.703v0l-9.148 7.285c-0.491 0.391-0.833 0.851-1.026 1.38-0.198 0.533-0.26 1.077-0.185 1.632 0.07 0.559 0.279 1.058 0.629 1.496v0c0.349 0.439 0.784 0.749 1.305 0.932 0.52 0.192 1.057 0.246 1.613 0.161 0.551-0.08 1.071-0.316 1.562-0.706v0l9.148-7.285c0.966-0.769 2.006-1.247 3.119-1.434 1.108-0.183 2.189-0.075 3.241 0.325 1.048 0.394 1.971 1.093 2.769 2.095v0c0.782 0.982 1.247 2.027 1.397 3.136 0.15 1.109 0.009 2.181-0.422 3.216-0.436 1.038-1.137 1.942-2.103 2.711v0l-13.619 10.845-2.015-2.529 13.964-11.12c0.475-0.378 0.816-0.829 1.023-1.352 0.212-0.527 0.283-1.07 0.213-1.629-0.07-0.559-0.285-1.065-0.647-1.52v0c-0.378-0.475-0.832-0.809-1.361-1.002-0.529-0.193-1.078-0.251-1.648-0.172-0.564 0.074-1.084 0.3-1.558 0.678v0l-9.156 7.29c-1.013 0.807-2.071 1.299-3.174 1.479-1.103 0.179-2.171 0.07-3.205-0.328-1.033-0.397-1.926-1.069-2.678-2.014zM56.562 226.987l-2.938-1.7 17.577-14.41c0.773-0.617 1.538-0.953 2.295-1.009 0.757-0.056 1.494 0.124 2.21 0.538v0c0.716 0.414 1.248 0.961 1.596 1.64 0.338 0.681 0.426 1.503 0.263 2.466v0l-3.722 22.471-3.051-1.765 1.066-5.941-10.651-6.161zM73.083 213.203l-9.567 7.94 8.935 5.169 2.2-12.202c0.049-0.311 0.054-0.566 0.015-0.766-0.035-0.205-0.16-0.37-0.373-0.494v0c-0.196-0.114-0.393-0.135-0.588-0.063-0.192 0.066-0.4 0.204-0.622 0.416zM89.807 242.556l-3.133-0.804 5.847-22.789 9.998 2.565c1.435 0.368 2.659 1.01 3.672 1.924 1.011 0.921 1.722 2.03 2.133 3.327 0.405 1.296 0.415 2.694 0.03 4.194v0c-0.39 1.519-1.118 2.759-2.184 3.719-1.068 0.966-2.327 1.563-3.777 1.79v0l1.173 5.583c0.087 0.387 0.213 0.689 0.378 0.903 0.164 0.221 0.44 0.382 0.827 0.481v0l1.629 0.418-0.709 2.764-2.114-0.542c-0.847-0.217-1.535-0.625-2.063-1.222-0.529-0.597-0.906-1.318-1.131-2.161v0l-1.304-6.278c-0.226-0.031-0.463-0.074-0.711-0.131-0.255-0.052-0.512-0.111-0.771-0.177v0l-5.76-1.478zM94.944 222.53l-2.398 9.349 6.439 1.652c0.937 0.24 1.838 0.275 2.702 0.104 0.864-0.171 1.608-0.549 2.234-1.133 0.624-0.577 1.061-1.354 1.311-2.33v0c0.257-1.002 0.245-1.908-0.037-2.718-0.273-0.814-0.744-1.504-1.413-2.067-0.662-0.563-1.449-0.961-2.36-1.195v0zM133.659 247.153l-1.571 0.044c-1.281 0.035-2.393-0.208-3.335-0.73-0.943-0.528-1.681-1.259-2.214-2.192-0.533-0.94-0.816-2.004-0.849-3.192v0l-0.396-14.381-7.155 0.197-0.079-2.853 17.544-0.483 0.078 2.853-7.155 0.197 0.407 14.781c0.024 0.874 0.318 1.59 0.88 2.149 0.563 0.559 1.305 0.825 2.226 0.801v0l1.541-0.043zM170.019 238.066l-2.951 1.298-7.007-15.938c-0.478-1.088-0.658-2.16-0.54-3.219 0.124-1.061 0.502-2.018 1.132-2.871 0.628-0.845 1.476-1.502 2.546-1.972v0l7.662-3.369 1.148 2.612-7.323 3.22c-0.904 0.398-1.505 0.997-1.801 1.798-0.294 0.807-0.252 1.642 0.127 2.503v0l1.918 4.363 9.174-4.034 1.152 2.622-9.174 4.033zM204.756 216.069l-7.249 5.683c-1.024 0.803-2.12 1.272-3.286 1.406-1.166 0.125-2.28-0.036-3.343-0.483-1.063-0.447-1.961-1.138-2.694-2.073v0c-0.663-0.846-1.085-1.795-1.267-2.849-0.187-1.049-0.066-2.086 0.362-3.108v0c-1.111 0.108-2.139-0.04-3.084-0.445-0.941-0.399-1.716-0.987-2.325-1.765v0c-0.745-0.951-1.197-1.992-1.354-3.123-0.159-1.122-0.033-2.222 0.377-3.299 0.411-1.077 1.084-1.982 2.019-2.715v0l7.328-5.744 1.76 2.245-7.036 5.516c-0.552 0.432-0.934 0.945-1.148 1.537-0.215 0.601-0.278 1.214-0.187 1.839 0.091 0.624 0.35 1.21 0.778 1.755v0c0.404 0.515 0.899 0.881 1.486 1.1 0.591 0.224 1.208 0.291 1.851 0.203 0.634-0.09 1.216-0.342 1.746-0.759v0l6.004-4.707 1.766 2.254-5.814 4.559c-0.657 0.515-1.103 1.098-1.339 1.749-0.241 0.655-0.307 1.318-0.197 1.987 0.109 0.669 0.372 1.269 0.787 1.799v0c0.416 0.531 0.926 0.927 1.532 1.191 0.609 0.269 1.249 0.36 1.92 0.276 0.676-0.089 1.322-0.375 1.937-0.857v0l6.91-5.418zM221.537 196.237l-6.32 8.45-2.285-1.709 6.104-8.162c0.468-0.625 0.72-1.274 0.756-1.947 0.042-0.669-0.079-1.305-0.361-1.908-0.277-0.599-0.675-1.092-1.193-1.48v0c-0.54-0.404-1.13-0.657-1.769-0.76-0.638-0.094-1.26-0.026-1.866 0.205-0.606 0.23-1.144 0.661-1.616 1.291v0l-2.657 3.552c-0.791 1.058-1.711 1.825-2.758 2.301-1.042 0.479-2.125 0.657-3.249 0.533-1.124-0.124-2.181-0.556-3.169-1.295v0c-1.005-0.751-1.745-1.651-2.221-2.698-0.479-1.042-0.654-2.135-0.523-3.279 0.135-1.15 0.592-2.245 1.371-3.288v0l5.978-7.994 2.285 1.709-5.798 7.753c-0.444 0.593-0.694 1.218-0.752 1.875-0.058 0.657 0.044 1.267 0.307 1.83 0.272 0.562 0.659 1.03 1.161 1.406v0c0.481 0.36 1.027 0.593 1.639 0.701 0.606 0.103 1.207 0.036 1.802-0.203 0.6-0.234 1.116-0.64 1.548-1.218v0l2.716-3.632c0.847-1.133 1.795-1.937 2.842-2.412 1.053-0.471 2.126-0.631 3.221-0.479 1.093 0.143 2.135 0.584 3.124 1.323v0c1.096 0.819 1.905 1.766 2.426 2.84 0.523 1.083 0.724 2.208 0.602 3.375-0.117 1.171-0.566 2.277-1.345 3.32zM237.359 164.772l-0.572 1.464c-0.466 1.194-1.122 2.123-1.969 2.789-0.853 0.663-1.814 1.058-2.881 1.186-1.074 0.126-2.164-0.028-3.271-0.459v0l-13.402-5.231-2.603 6.669-2.658-1.037 6.381-16.35 2.658 1.037-2.603 6.669 13.776 5.376c0.815 0.318 1.589 0.326 2.322 0.025 0.734-0.301 1.268-0.881 1.603-1.739v0l0.56-1.436zM2.737 127.103c0-5.135 4.163-9.297 9.298-9.297 5.135 0 9.297 4.163 9.297 9.297 0 5.135-4.163 9.297-9.297 9.297-5.135 0-9.297-4.163-9.298-9.297zM225.483 127.103c0-5.135 4.163-9.297 9.297-9.297 5.135 0 9.297 4.163 9.297 9.297 0 5.135-4.163 9.297-9.297 9.297-5.135 0-9.297-4.163-9.297-9.297z" fill="#093d65" data-fill-palette-color="primary"></path></svg></g></svg></g></svg></g></svg></g></svg></g></svg><rect width="247.2" height="247.2" fill="none" stroke="none" visibility="hidden"></rect></g></svg></g></svg>